<svg width="19" height="19" viewBox="0 0 19 19" fill="none" xmlns="http://www.w3.org/2000/svg">
<g clip-path="url(#clip0)">
<path d="M12.6667 16.625V15.0417C12.6667 14.2018 12.333 13.3964 11.7392 12.8025C11.1453 12.2086 10.3398 11.875 9.49999 11.875H3.95832C3.11847 11.875 2.31302 12.2086 1.71915 12.8025C1.12529 13.3964 0.791656 14.2018 0.791656 15.0417V16.625" stroke="#282828" stroke-width="2" stroke-linecap="round" stroke-linejoin="round"/>
<path d="M6.72917 8.70833C8.47807 8.70833 9.89583 7.29057 9.89583 5.54167C9.89583 3.79277 8.47807 2.375 6.72917 2.375C4.98026 2.375 3.5625 3.79277 3.5625 5.54167C3.5625 7.29057 4.98026 8.70833 6.72917 8.70833Z" stroke="#282828" stroke-width="2" stroke-linecap="round" stroke-linejoin="round"/>
<path d="M15.8333 6.33331V11.0833" stroke="#282828" stroke-width="2" stroke-linecap="round" stroke-linejoin="round"/>
<path d="M18.2083 8.70831H13.4583" stroke="#282828" stroke-width="2" stroke-linecap="round" stroke-linejoin="round"/>
</g>
<defs>
<clipPath id="clip0">
<rect width="19" height="19" fill="white"/>
</clipPath>
</defs>
</svg>
